<?xml version="1.0" encoding="utf-8" standalone="no"?>
<!DOCTYPE svg PUBLIC "-//W3C//DTD SVG 1.1//EN"
  "http://www.w3.org/Graphics/SVG/1.1/DTD/svg11.dtd">
<svg xmlns:xlink="http://www.w3.org/1999/xlink" width="691.2pt" height="345.6pt" viewBox="0 0 691.2 345.6" xmlns="http://www.w3.org/2000/svg" version="1.1" style="background-color:white">>
 <metadata>
  <rdf:RDF xmlns:dc="http://purl.org/dc/elements/1.1/" xmlns:cc="http://creativecommons.org/ns#" xmlns:rdf="http://www.w3.org/1999/02/22-rdf-syntax-ns#">
   <cc:Work>
    <dc:type rdf:resource="http://purl.org/dc/dcmitype/StillImage"/>
    <dc:date>2022-08-17T14:42:03.247372</dc:date>
    <dc:format>image/svg+xml</dc:format>
    <dc:creator>
     <cc:Agent>
      <dc:title>Matplotlib v3.5.2, https://matplotlib.org/</dc:title>
     </cc:Agent>
    </dc:creator>
   </cc:Work>
  </rdf:RDF>
 </metadata>
 <defs>
  <style type="text/css">*{stroke-linejoin: round; stroke-linecap: butt}</style>
 </defs>
 <g id="figure_1">
  <g id="patch_1">
   <path d="M 0 345.6 
L 691.2 345.6 
L 691.2 0 
L 0 0 
z
" style="fill: #ffffff"/>
  </g>
  <g id="axes_1">
   <g id="patch_2">
    <path d="M 34.848 318.390945 
L 671.002 318.390945 
L 671.002 10.8 
L 34.848 10.8 
z
" style="fill: #ffffff"/>
   </g>
   <g id="matplotlib.axis_1">
    <g id="xtick_1">
     <g id="line2d_1">
      <path d="M 63.764091 318.390945 
L 63.764091 10.8 
" clip-path="url(#p36bd301eb5)" style="fill: none; stroke-dasharray: 2.96,1.28; stroke-dashoffset: 0; stroke: #808080; stroke-opacity: 0.4; stroke-width: 0.8"/>
     </g>
     <g id="line2d_2">
      <defs>
       <path id="m0b2ef2b172" d="M 0 0 
L 0 3.5 
" style="stroke: #000000; stroke-width: 0.8"/>
      </defs>
      <g>
       <use xlink:href="#m0b2ef2b172" x="63.764091" y="318.390945" style="stroke: #000000; stroke-width: 0.8"/>
      </g>
     </g>
     <g id="text_1">
      <!-- 0 -->
      <g transform="translate(59.946591 334.50907)scale(0.12 -0.12)">
       <defs>
        <path id="DejaVuSans-30" d="M 2034 4250 
Q 1547 4250 1301 3770 
Q 1056 3291 1056 2328 
Q 1056 1369 1301 889 
Q 1547 409 2034 409 
Q 2525 409 2770 889 
Q 3016 1369 3016 2328 
Q 3016 3291 2770 3770 
Q 2525 4250 2034 4250 
z
M 2034 4750 
Q 2819 4750 3233 4129 
Q 3647 3509 3647 2328 
Q 3647 1150 3233 529 
Q 2819 -91 2034 -91 
Q 1250 -91 836 529 
Q 422 1150 422 2328 
Q 422 3509 836 4129 
Q 1250 4750 2034 4750 
z
" transform="scale(0.015625)"/>
       </defs>
       <use xlink:href="#DejaVuSans-30"/>
      </g>
     </g>
    </g>
    <g id="xtick_2">
     <g id="line2d_3">
      <path d="M 101.8952 318.390945 
L 101.8952 10.8 
" clip-path="url(#p36bd301eb5)" style="fill: none; stroke-dasharray: 2.96,1.28; stroke-dashoffset: 0; stroke: #808080; stroke-opacity: 0.4; stroke-width: 0.8"/>
     </g>
     <g id="line2d_4">
      <g>
       <use xlink:href="#m0b2ef2b172" x="101.8952" y="318.390945" style="stroke: #000000; stroke-width: 0.8"/>
      </g>
     </g>
     <g id="text_2">
      <!-- 1 -->
      <g transform="translate(98.0777 334.50907)scale(0.12 -0.12)">
       <defs>
        <path id="DejaVuSans-31" d="M 794 531 
L 1825 531 
L 1825 4091 
L 703 3866 
L 703 4441 
L 1819 4666 
L 2450 4666 
L 2450 531 
L 3481 531 
L 3481 0 
L 794 0 
L 794 531 
z
" transform="scale(0.015625)"/>
       </defs>
       <use xlink:href="#DejaVuSans-31"/>
      </g>
     </g>
    </g>
    <g id="xtick_3">
     <g id="line2d_5">
      <path d="M 140.026309 318.390945 
L 140.026309 10.8 
" clip-path="url(#p36bd301eb5)" style="fill: none; stroke-dasharray: 2.96,1.28; stroke-dashoffset: 0; stroke: #808080; stroke-opacity: 0.4; stroke-width: 0.8"/>
     </g>
     <g id="line2d_6">
      <g>
       <use xlink:href="#m0b2ef2b172" x="140.026309" y="318.390945" style="stroke: #000000; stroke-width: 0.8"/>
      </g>
     </g>
     <g id="text_3">
      <!-- 2 -->
      <g transform="translate(136.208809 334.50907)scale(0.12 -0.12)">
       <defs>
        <path id="DejaVuSans-32" d="M 1228 531 
L 3431 531 
L 3431 0 
L 469 0 
L 469 531 
Q 828 903 1448 1529 
Q 2069 2156 2228 2338 
Q 2531 2678 2651 2914 
Q 2772 3150 2772 3378 
Q 2772 3750 2511 3984 
Q 2250 4219 1831 4219 
Q 1534 4219 1204 4116 
Q 875 4013 500 3803 
L 500 4441 
Q 881 4594 1212 4672 
Q 1544 4750 1819 4750 
Q 2544 4750 2975 4387 
Q 3406 4025 3406 3419 
Q 3406 3131 3298 2873 
Q 3191 2616 2906 2266 
Q 2828 2175 2409 1742 
Q 1991 1309 1228 531 
z
" transform="scale(0.015625)"/>
       </defs>
       <use xlink:href="#DejaVuSans-32"/>
      </g>
     </g>
    </g>
    <g id="xtick_4">
     <g id="line2d_7">
      <path d="M 178.157418 318.390945 
L 178.157418 10.8 
" clip-path="url(#p36bd301eb5)" style="fill: none; stroke-dasharray: 2.96,1.28; stroke-dashoffset: 0; stroke: #808080; stroke-opacity: 0.4; stroke-width: 0.8"/>
     </g>
     <g id="line2d_8">
      <g>
       <use xlink:href="#m0b2ef2b172" x="178.157418" y="318.390945" style="stroke: #000000; stroke-width: 0.8"/>
      </g>
     </g>
     <g id="text_4">
      <!-- 3 -->
      <g transform="translate(174.339918 334.50907)scale(0.12 -0.12)">
       <defs>
        <path id="DejaVuSans-33" d="M 2597 2516 
Q 3050 2419 3304 2112 
Q 3559 1806 3559 1356 
Q 3559 666 3084 287 
Q 2609 -91 1734 -91 
Q 1441 -91 1130 -33 
Q 819 25 488 141 
L 488 750 
Q 750 597 1062 519 
Q 1375 441 1716 441 
Q 2309 441 2620 675 
Q 2931 909 2931 1356 
Q 2931 1769 2642 2001 
Q 2353 2234 1838 2234 
L 1294 2234 
L 1294 2753 
L 1863 2753 
Q 2328 2753 2575 2939 
Q 2822 3125 2822 3475 
Q 2822 3834 2567 4026 
Q 2313 4219 1838 4219 
Q 1578 4219 1281 4162 
Q 984 4106 628 3988 
L 628 4550 
Q 988 4650 1302 4700 
Q 1616 4750 1894 4750 
Q 2613 4750 3031 4423 
Q 3450 4097 3450 3541 
Q 3450 3153 3228 2886 
Q 3006 2619 2597 2516 
z
" transform="scale(0.015625)"/>
       </defs>
       <use xlink:href="#DejaVuSans-33"/>
      </g>
     </g>
    </g>
    <g id="xtick_5">
     <g id="line2d_9">
      <path d="M 216.288526 318.390945 
L 216.288526 10.8 
" clip-path="url(#p36bd301eb5)" style="fill: none; stroke-dasharray: 2.96,1.28; stroke-dashoffset: 0; stroke: #808080; stroke-opacity: 0.4; stroke-width: 0.8"/>
     </g>
     <g id="line2d_10">
      <g>
       <use xlink:href="#m0b2ef2b172" x="216.288526" y="318.390945" style="stroke: #000000; stroke-width: 0.8"/>
      </g>
     </g>
     <g id="text_5">
      <!-- 4 -->
      <g transform="translate(212.471026 334.50907)scale(0.12 -0.12)">
       <defs>
        <path id="DejaVuSans-34" d="M 2419 4116 
L 825 1625 
L 2419 1625 
L 2419 4116 
z
M 2253 4666 
L 3047 4666 
L 3047 1625 
L 3713 1625 
L 3713 1100 
L 3047 1100 
L 3047 0 
L 2419 0 
L 2419 1100 
L 313 1100 
L 313 1709 
L 2253 4666 
z
" transform="scale(0.015625)"/>
       </defs>
       <use xlink:href="#DejaVuSans-34"/>
      </g>
     </g>
    </g>
    <g id="xtick_6">
     <g id="line2d_11">
      <path d="M 254.419635 318.390945 
L 254.419635 10.8 
" clip-path="url(#p36bd301eb5)" style="fill: none; stroke-dasharray: 2.96,1.28; stroke-dashoffset: 0; stroke: #808080; stroke-opacity: 0.4; stroke-width: 0.8"/>
     </g>
     <g id="line2d_12">
      <g>
       <use xlink:href="#m0b2ef2b172" x="254.419635" y="318.390945" style="stroke: #000000; stroke-width: 0.8"/>
      </g>
     </g>
     <g id="text_6">
      <!-- 5 -->
      <g transform="translate(250.602135 334.50907)scale(0.12 -0.12)">
       <defs>
        <path id="DejaVuSans-35" d="M 691 4666 
L 3169 4666 
L 3169 4134 
L 1269 4134 
L 1269 2991 
Q 1406 3038 1543 3061 
Q 1681 3084 1819 3084 
Q 2600 3084 3056 2656 
Q 3513 2228 3513 1497 
Q 3513 744 3044 326 
Q 2575 -91 1722 -91 
Q 1428 -91 1123 -41 
Q 819 9 494 109 
L 494 744 
Q 775 591 1075 516 
Q 1375 441 1709 441 
Q 2250 441 2565 725 
Q 2881 1009 2881 1497 
Q 2881 1984 2565 2268 
Q 2250 2553 1709 2553 
Q 1456 2553 1204 2497 
Q 953 2441 691 2322 
L 691 4666 
z
" transform="scale(0.015625)"/>
       </defs>
       <use xlink:href="#DejaVuSans-35"/>
      </g>
     </g>
    </g>
    <g id="xtick_7">
     <g id="line2d_13">
      <path d="M 292.550744 318.390945 
L 292.550744 10.8 
" clip-path="url(#p36bd301eb5)" style="fill: none; stroke-dasharray: 2.96,1.28; stroke-dashoffset: 0; stroke: #808080; stroke-opacity: 0.4; stroke-width: 0.8"/>
     </g>
     <g id="line2d_14">
      <g>
       <use xlink:href="#m0b2ef2b172" x="292.550744" y="318.390945" style="stroke: #000000; stroke-width: 0.8"/>
      </g>
     </g>
     <g id="text_7">
      <!-- 6 -->
      <g transform="translate(288.733244 334.50907)scale(0.12 -0.12)">
       <defs>
        <path id="DejaVuSans-36" d="M 2113 2584 
Q 1688 2584 1439 2293 
Q 1191 2003 1191 1497 
Q 1191 994 1439 701 
Q 1688 409 2113 409 
Q 2538 409 2786 701 
Q 3034 994 3034 1497 
Q 3034 2003 2786 2293 
Q 2538 2584 2113 2584 
z
M 3366 4563 
L 3366 3988 
Q 3128 4100 2886 4159 
Q 2644 4219 2406 4219 
Q 1781 4219 1451 3797 
Q 1122 3375 1075 2522 
Q 1259 2794 1537 2939 
Q 1816 3084 2150 3084 
Q 2853 3084 3261 2657 
Q 3669 2231 3669 1497 
Q 3669 778 3244 343 
Q 2819 -91 2113 -91 
Q 1303 -91 875 529 
Q 447 1150 447 2328 
Q 447 3434 972 4092 
Q 1497 4750 2381 4750 
Q 2619 4750 2861 4703 
Q 3103 4656 3366 4563 
z
" transform="scale(0.015625)"/>
       </defs>
       <use xlink:href="#DejaVuSans-36"/>
      </g>
     </g>
    </g>
    <g id="xtick_8">
     <g id="line2d_15">
      <path d="M 330.681853 318.390945 
L 330.681853 10.8 
" clip-path="url(#p36bd301eb5)" style="fill: none; stroke-dasharray: 2.96,1.28; stroke-dashoffset: 0; stroke: #808080; stroke-opacity: 0.4; stroke-width: 0.8"/>
     </g>
     <g id="line2d_16">
      <g>
       <use xlink:href="#m0b2ef2b172" x="330.681853" y="318.390945" style="stroke: #000000; stroke-width: 0.8"/>
      </g>
     </g>
     <g id="text_8">
      <!-- 7 -->
      <g transform="translate(326.864353 334.50907)scale(0.12 -0.12)">
       <defs>
        <path id="DejaVuSans-37" d="M 525 4666 
L 3525 4666 
L 3525 4397 
L 1831 0 
L 1172 0 
L 2766 4134 
L 525 4134 
L 525 4666 
z
" transform="scale(0.015625)"/>
       </defs>
       <use xlink:href="#DejaVuSans-37"/>
      </g>
     </g>
    </g>
    <g id="xtick_9">
     <g id="line2d_17">
      <path d="M 368.812962 318.390945 
L 368.812962 10.8 
" clip-path="url(#p36bd301eb5)" style="fill: none; stroke-dasharray: 2.96,1.28; stroke-dashoffset: 0; stroke: #808080; stroke-opacity: 0.4; stroke-width: 0.8"/>
     </g>
     <g id="line2d_18">
      <g>
       <use xlink:href="#m0b2ef2b172" x="368.812962" y="318.390945" style="stroke: #000000; stroke-width: 0.8"/>
      </g>
     </g>
     <g id="text_9">
      <!-- 8 -->
      <g transform="translate(364.995462 334.50907)scale(0.12 -0.12)">
       <defs>
        <path id="DejaVuSans-38" d="M 2034 2216 
Q 1584 2216 1326 1975 
Q 1069 1734 1069 1313 
Q 1069 891 1326 650 
Q 1584 409 2034 409 
Q 2484 409 2743 651 
Q 3003 894 3003 1313 
Q 3003 1734 2745 1975 
Q 2488 2216 2034 2216 
z
M 1403 2484 
Q 997 2584 770 2862 
Q 544 3141 544 3541 
Q 544 4100 942 4425 
Q 1341 4750 2034 4750 
Q 2731 4750 3128 4425 
Q 3525 4100 3525 3541 
Q 3525 3141 3298 2862 
Q 3072 2584 2669 2484 
Q 3125 2378 3379 2068 
Q 3634 1759 3634 1313 
Q 3634 634 3220 271 
Q 2806 -91 2034 -91 
Q 1263 -91 848 271 
Q 434 634 434 1313 
Q 434 1759 690 2068 
Q 947 2378 1403 2484 
z
M 1172 3481 
Q 1172 3119 1398 2916 
Q 1625 2713 2034 2713 
Q 2441 2713 2670 2916 
Q 2900 3119 2900 3481 
Q 2900 3844 2670 4047 
Q 2441 4250 2034 4250 
Q 1625 4250 1398 4047 
Q 1172 3844 1172 3481 
z
" transform="scale(0.015625)"/>
       </defs>
       <use xlink:href="#DejaVuSans-38"/>
      </g>
     </g>
    </g>
    <g id="xtick_10">
     <g id="line2d_19">
      <path d="M 406.944071 318.390945 
L 406.944071 10.8 
" clip-path="url(#p36bd301eb5)" style="fill: none; stroke-dasharray: 2.96,1.28; stroke-dashoffset: 0; stroke: #808080; stroke-opacity: 0.4; stroke-width: 0.8"/>
     </g>
     <g id="line2d_20">
      <g>
       <use xlink:href="#m0b2ef2b172" x="406.944071" y="318.390945" style="stroke: #000000; stroke-width: 0.8"/>
      </g>
     </g>
     <g id="text_10">
      <!-- 9 -->
      <g transform="translate(403.126571 334.50907)scale(0.12 -0.12)">
       <defs>
        <path id="DejaVuSans-39" d="M 703 97 
L 703 672 
Q 941 559 1184 500 
Q 1428 441 1663 441 
Q 2288 441 2617 861 
Q 2947 1281 2994 2138 
Q 2813 1869 2534 1725 
Q 2256 1581 1919 1581 
Q 1219 1581 811 2004 
Q 403 2428 403 3163 
Q 403 3881 828 4315 
Q 1253 4750 1959 4750 
Q 2769 4750 3195 4129 
Q 3622 3509 3622 2328 
Q 3622 1225 3098 567 
Q 2575 -91 1691 -91 
Q 1453 -91 1209 -44 
Q 966 3 703 97 
z
M 1959 2075 
Q 2384 2075 2632 2365 
Q 2881 2656 2881 3163 
Q 2881 3666 2632 3958 
Q 2384 4250 1959 4250 
Q 1534 4250 1286 3958 
Q 1038 3666 1038 3163 
Q 1038 2656 1286 2365 
Q 1534 2075 1959 2075 
z
" transform="scale(0.015625)"/>
       </defs>
       <use xlink:href="#DejaVuSans-39"/>
      </g>
     </g>
    </g>
    <g id="xtick_11">
     <g id="line2d_21">
      <path d="M 445.07518 318.390945 
L 445.07518 10.8 
" clip-path="url(#p36bd301eb5)" style="fill: none; stroke-dasharray: 2.96,1.28; stroke-dashoffset: 0; stroke: #808080; stroke-opacity: 0.4; stroke-width: 0.8"/>
     </g>
     <g id="line2d_22">
      <g>
       <use xlink:href="#m0b2ef2b172" x="445.07518" y="318.390945" style="stroke: #000000; stroke-width: 0.8"/>
      </g>
     </g>
     <g id="text_11">
      <!-- 10 -->
      <g transform="translate(437.44018 334.50907)scale(0.12 -0.12)">
       <use xlink:href="#DejaVuSans-31"/>
       <use xlink:href="#DejaVuSans-30" x="63.623047"/>
      </g>
     </g>
    </g>
    <g id="xtick_12">
     <g id="line2d_23">
      <path d="M 483.206289 318.390945 
L 483.206289 10.8 
" clip-path="url(#p36bd301eb5)" style="fill: none; stroke-dasharray: 2.96,1.28; stroke-dashoffset: 0; stroke: #808080; stroke-opacity: 0.4; stroke-width: 0.8"/>
     </g>
     <g id="line2d_24">
      <g>
       <use xlink:href="#m0b2ef2b172" x="483.206289" y="318.390945" style="stroke: #000000; stroke-width: 0.8"/>
      </g>
     </g>
     <g id="text_12">
      <!-- 11 -->
      <g transform="translate(475.571289 334.50907)scale(0.12 -0.12)">
       <use xlink:href="#DejaVuSans-31"/>
       <use xlink:href="#DejaVuSans-31" x="63.623047"/>
      </g>
     </g>
    </g>
    <g id="xtick_13">
     <g id="line2d_25">
      <path d="M 521.337398 318.390945 
L 521.337398 10.8 
" clip-path="url(#p36bd301eb5)" style="fill: none; stroke-dasharray: 2.96,1.28; stroke-dashoffset: 0; stroke: #808080; stroke-opacity: 0.4; stroke-width: 0.8"/>
     </g>
     <g id="line2d_26">
      <g>
       <use xlink:href="#m0b2ef2b172" x="521.337398" y="318.390945" style="stroke: #000000; stroke-width: 0.8"/>
      </g>
     </g>
     <g id="text_13">
      <!-- 12 -->
      <g transform="translate(513.702398 334.50907)scale(0.12 -0.12)">
       <use xlink:href="#DejaVuSans-31"/>
       <use xlink:href="#DejaVuSans-32" x="63.623047"/>
      </g>
     </g>
    </g>
    <g id="xtick_14">
     <g id="line2d_27">
      <path d="M 559.468506 318.390945 
L 559.468506 10.8 
" clip-path="url(#p36bd301eb5)" style="fill: none; stroke-dasharray: 2.96,1.28; stroke-dashoffset: 0; stroke: #808080; stroke-opacity: 0.4; stroke-width: 0.8"/>
     </g>
     <g id="line2d_28">
      <g>
       <use xlink:href="#m0b2ef2b172" x="559.468506" y="318.390945" style="stroke: #000000; stroke-width: 0.8"/>
      </g>
     </g>
     <g id="text_14">
      <!-- 13 -->
      <g transform="translate(551.833506 334.50907)scale(0.12 -0.12)">
       <use xlink:href="#DejaVuSans-31"/>
       <use xlink:href="#DejaVuSans-33" x="63.623047"/>
      </g>
     </g>
    </g>
    <g id="xtick_15">
     <g id="line2d_29">
      <path d="M 597.599615 318.390945 
L 597.599615 10.8 
" clip-path="url(#p36bd301eb5)" style="fill: none; stroke-dasharray: 2.96,1.28; stroke-dashoffset: 0; stroke: #808080; stroke-opacity: 0.4; stroke-width: 0.8"/>
     </g>
     <g id="line2d_30">
      <g>
       <use xlink:href="#m0b2ef2b172" x="597.599615" y="318.390945" style="stroke: #000000; stroke-width: 0.8"/>
      </g>
     </g>
     <g id="text_15">
      <!-- 14 -->
      <g transform="translate(589.964615 334.50907)scale(0.12 -0.12)">
       <use xlink:href="#DejaVuSans-31"/>
       <use xlink:href="#DejaVuSans-34" x="63.623047"/>
      </g>
     </g>
    </g>
    <g id="xtick_16">
     <g id="line2d_31">
      <path d="M 635.730724 318.390945 
L 635.730724 10.8 
" clip-path="url(#p36bd301eb5)" style="fill: none; stroke-dasharray: 2.96,1.28; stroke-dashoffset: 0; stroke: #808080; stroke-opacity: 0.4; stroke-width: 0.8"/>
     </g>
     <g id="line2d_32">
      <g>
       <use xlink:href="#m0b2ef2b172" x="635.730724" y="318.390945" style="stroke: #000000; stroke-width: 0.8"/>
      </g>
     </g>
     <g id="text_16">
      <!-- 15 -->
      <g transform="translate(628.095724 334.50907)scale(0.12 -0.12)">
       <use xlink:href="#DejaVuSans-31"/>
       <use xlink:href="#DejaVuSans-35" x="63.623047"/>
      </g>
     </g>
    </g>
   </g>
   <g id="matplotlib.axis_2">
    <g id="ytick_1">
     <g id="line2d_33">
      <path d="M 34.848 31.136591 
L 671.002 31.136591 
" clip-path="url(#p36bd301eb5)" style="fill: none; stroke-dasharray: 2.96,1.28; stroke-dashoffset: 0; stroke: #808080; stroke-opacity: 0.4; stroke-width: 0.8"/>
     </g>
     <g id="line2d_34">
      <defs>
       <path id="maf065e86fe" d="M 0 0 
L -3.5 0 
" style="stroke: #000000; stroke-width: 0.8"/>
      </defs>
      <g>
       <use xlink:href="#maf065e86fe" x="34.848" y="31.136591" style="stroke: #000000; stroke-width: 0.8"/>
      </g>
     </g>
     <g id="text_17">
      <!-- 0 -->
      <g transform="translate(20.213 35.695654)scale(0.12 -0.12)">
       <use xlink:href="#DejaVuSans-30"/>
      </g>
     </g>
    </g>
    <g id="ytick_2">
     <g id="line2d_35">
      <path d="M 34.848 69.2677 
L 671.002 69.2677 
" clip-path="url(#p36bd301eb5)" style="fill: none; stroke-dasharray: 2.96,1.28; stroke-dashoffset: 0; stroke: #808080; stroke-opacity: 0.4; stroke-width: 0.8"/>
     </g>
     <g id="line2d_36">
      <g>
       <use xlink:href="#maf065e86fe" x="34.848" y="69.2677" style="stroke: #000000; stroke-width: 0.8"/>
      </g>
     </g>
     <g id="text_18">
      <!-- 1 -->
      <g transform="translate(20.213 73.826763)scale(0.12 -0.12)">
       <use xlink:href="#DejaVuSans-31"/>
      </g>
     </g>
    </g>
    <g id="ytick_3">
     <g id="line2d_37">
      <path d="M 34.848 107.398809 
L 671.002 107.398809 
" clip-path="url(#p36bd301eb5)" style="fill: none; stroke-dasharray: 2.96,1.28; stroke-dashoffset: 0; stroke: #808080; stroke-opacity: 0.4; stroke-width: 0.8"/>
     </g>
     <g id="line2d_38">
      <g>
       <use xlink:href="#maf065e86fe" x="34.848" y="107.398809" style="stroke: #000000; stroke-width: 0.8"/>
      </g>
     </g>
     <g id="text_19">
      <!-- 2 -->
      <g transform="translate(20.213 111.957872)scale(0.12 -0.12)">
       <use xlink:href="#DejaVuSans-32"/>
      </g>
     </g>
    </g>
    <g id="ytick_4">
     <g id="line2d_39">
      <path d="M 34.848 145.529918 
L 671.002 145.529918 
" clip-path="url(#p36bd301eb5)" style="fill: none; stroke-dasharray: 2.96,1.28; stroke-dashoffset: 0; stroke: #808080; stroke-opacity: 0.4; stroke-width: 0.8"/>
     </g>
     <g id="line2d_40">
      <g>
       <use xlink:href="#maf065e86fe" x="34.848" y="145.529918" style="stroke: #000000; stroke-width: 0.8"/>
      </g>
     </g>
     <g id="text_20">
      <!-- 3 -->
      <g transform="translate(20.213 150.088981)scale(0.12 -0.12)">
       <use xlink:href="#DejaVuSans-33"/>
      </g>
     </g>
    </g>
    <g id="ytick_5">
     <g id="line2d_41">
      <path d="M 34.848 183.661027 
L 671.002 183.661027 
" clip-path="url(#p36bd301eb5)" style="fill: none; stroke-dasharray: 2.96,1.28; stroke-dashoffset: 0; stroke: #808080; stroke-opacity: 0.4; stroke-width: 0.8"/>
     </g>
     <g id="line2d_42">
      <g>
       <use xlink:href="#maf065e86fe" x="34.848" y="183.661027" style="stroke: #000000; stroke-width: 0.8"/>
      </g>
     </g>
     <g id="text_21">
      <!-- 4 -->
      <g transform="translate(20.213 188.220089)scale(0.12 -0.12)">
       <use xlink:href="#DejaVuSans-34"/>
      </g>
     </g>
    </g>
    <g id="ytick_6">
     <g id="line2d_43">
      <path d="M 34.848 221.792136 
L 671.002 221.792136 
" clip-path="url(#p36bd301eb5)" style="fill: none; stroke-dasharray: 2.96,1.28; stroke-dashoffset: 0; stroke: #808080; stroke-opacity: 0.4; stroke-width: 0.8"/>
     </g>
     <g id="line2d_44">
      <g>
       <use xlink:href="#maf065e86fe" x="34.848" y="221.792136" style="stroke: #000000; stroke-width: 0.8"/>
      </g>
     </g>
     <g id="text_22">
      <!-- 5 -->
      <g transform="translate(20.213 226.351198)scale(0.12 -0.12)">
       <use xlink:href="#DejaVuSans-35"/>
      </g>
     </g>
    </g>
    <g id="ytick_7">
     <g id="line2d_45">
      <path d="M 34.848 259.923245 
L 671.002 259.923245 
" clip-path="url(#p36bd301eb5)" style="fill: none; stroke-dasharray: 2.96,1.28; stroke-dashoffset: 0; stroke: #808080; stroke-opacity: 0.4; stroke-width: 0.8"/>
     </g>
     <g id="line2d_46">
      <g>
       <use xlink:href="#maf065e86fe" x="34.848" y="259.923245" style="stroke: #000000; stroke-width: 0.8"/>
      </g>
     </g>
     <g id="text_23">
      <!-- 6 -->
      <g transform="translate(20.213 264.482307)scale(0.12 -0.12)">
       <use xlink:href="#DejaVuSans-36"/>
      </g>
     </g>
    </g>
    <g id="ytick_8">
     <g id="line2d_47">
      <path d="M 34.848 298.054354 
L 671.002 298.054354 
" clip-path="url(#p36bd301eb5)" style="fill: none; stroke-dasharray: 2.96,1.28; stroke-dashoffset: 0; stroke: #808080; stroke-opacity: 0.4; stroke-width: 0.8"/>
     </g>
     <g id="line2d_48">
      <g>
       <use xlink:href="#maf065e86fe" x="34.848" y="298.054354" style="stroke: #000000; stroke-width: 0.8"/>
      </g>
     </g>
     <g id="text_24">
      <!-- 7 -->
      <g transform="translate(20.213 302.613416)scale(0.12 -0.12)">
       <use xlink:href="#DejaVuSans-37"/>
      </g>
     </g>
    </g>
   </g>
   <g id="PathCollection_1">
    <defs>
     <path id="maed6ecf96b" d="M 0 2.5 
C 0.663008 2.5 1.29895 2.236584 1.767767 1.767767 
C 2.236584 1.29895 2.5 0.663008 2.5 0 
C 2.5 -0.663008 2.236584 -1.29895 1.767767 -1.767767 
C 1.29895 -2.236584 0.663008 -2.5 0 -2.5 
C -0.663008 -2.5 -1.29895 -2.236584 -1.767767 -1.767767 
C -2.236584 -1.29895 -2.5 -0.663008 -2.5 0 
C -2.5 0.663008 -2.236584 1.29895 -1.767767 1.767767 
C -1.29895 2.236584 -0.663008 2.5 0 2.5 
z
" style="stroke: #000000"/>
    </defs>
    <g clip-path="url(#p36bd301eb5)">
     <use xlink:href="#maed6ecf96b" x="63.764091" y="24.781407" style="stroke: #000000"/>
     <use xlink:href="#maed6ecf96b" x="101.8952" y="24.781407" style="stroke: #000000"/>
     <use xlink:href="#maed6ecf96b" x="133.671124" y="31.136591" style="stroke: #000000"/>
     <use xlink:href="#maed6ecf96b" x="171.802233" y="31.136591" style="stroke: #000000"/>
     <use xlink:href="#maed6ecf96b" x="216.288526" y="24.781407" style="stroke: #000000"/>
     <use xlink:href="#maed6ecf96b" x="248.064451" y="31.136591" style="stroke: #000000"/>
     <use xlink:href="#maed6ecf96b" x="292.550744" y="37.491776" style="stroke: #000000"/>
     <use xlink:href="#maed6ecf96b" x="330.681853" y="24.781407" style="stroke: #000000"/>
     <use xlink:href="#maed6ecf96b" x="368.812962" y="24.781407" style="stroke: #000000"/>
     <use xlink:href="#maed6ecf96b" x="413.299256" y="31.136591" style="stroke: #000000"/>
     <use xlink:href="#maed6ecf96b" x="445.07518" y="37.491776" style="stroke: #000000"/>
     <use xlink:href="#maed6ecf96b" x="489.561474" y="31.136591" style="stroke: #000000"/>
     <use xlink:href="#maed6ecf96b" x="521.337398" y="37.491776" style="stroke: #000000"/>
     <use xlink:href="#maed6ecf96b" x="559.468506" y="37.491776" style="stroke: #000000"/>
     <use xlink:href="#maed6ecf96b" x="591.244431" y="31.136591" style="stroke: #000000"/>
     <use xlink:href="#maed6ecf96b" x="642.085909" y="31.136591" style="stroke: #000000"/>
     <use xlink:href="#maed6ecf96b" x="63.764091" y="62.912515" style="stroke: #000000"/>
     <use xlink:href="#maed6ecf96b" x="101.8952" y="75.622885" style="stroke: #000000"/>
     <use xlink:href="#maed6ecf96b" x="133.671124" y="69.2677" style="stroke: #000000"/>
     <use xlink:href="#maed6ecf96b" x="178.157418" y="62.912515" style="stroke: #000000"/>
     <use xlink:href="#maed6ecf96b" x="222.643711" y="69.2677" style="stroke: #000000"/>
     <use xlink:href="#maed6ecf96b" x="260.77482" y="69.2677" style="stroke: #000000"/>
     <use xlink:href="#maed6ecf96b" x="292.550744" y="75.622885" style="stroke: #000000"/>
     <use xlink:href="#maed6ecf96b" x="337.037038" y="69.2677" style="stroke: #000000"/>
     <use xlink:href="#maed6ecf96b" x="368.812962" y="75.622885" style="stroke: #000000"/>
     <use xlink:href="#maed6ecf96b" x="406.944071" y="62.912515" style="stroke: #000000"/>
     <use xlink:href="#maed6ecf96b" x="445.07518" y="75.622885" style="stroke: #000000"/>
     <use xlink:href="#maed6ecf96b" x="476.851104" y="69.2677" style="stroke: #000000"/>
     <use xlink:href="#maed6ecf96b" x="514.982213" y="69.2677" style="stroke: #000000"/>
     <use xlink:href="#maed6ecf96b" x="559.468506" y="75.622885" style="stroke: #000000"/>
     <use xlink:href="#maed6ecf96b" x="591.244431" y="69.2677" style="stroke: #000000"/>
     <use xlink:href="#maed6ecf96b" x="635.730724" y="62.912515" style="stroke: #000000"/>
     <use xlink:href="#maed6ecf96b" x="70.119276" y="107.398809" style="stroke: #000000"/>
     <use xlink:href="#maed6ecf96b" x="108.250385" y="107.398809" style="stroke: #000000"/>
     <use xlink:href="#maed6ecf96b" x="140.026309" y="113.753994" style="stroke: #000000"/>
     <use xlink:href="#maed6ecf96b" x="184.512602" y="107.398809" style="stroke: #000000"/>
     <use xlink:href="#maed6ecf96b" x="216.288526" y="101.043624" style="stroke: #000000"/>
     <use xlink:href="#maed6ecf96b" x="254.419635" y="113.753994" style="stroke: #000000"/>
     <use xlink:href="#maed6ecf96b" x="292.550744" y="101.043624" style="stroke: #000000"/>
     <use xlink:href="#maed6ecf96b" x="330.681853" y="101.043624" style="stroke: #000000"/>
     <use xlink:href="#maed6ecf96b" x="368.812962" y="113.753994" style="stroke: #000000"/>
     <use xlink:href="#maed6ecf96b" x="406.944071" y="101.043624" style="stroke: #000000"/>
     <use xlink:href="#maed6ecf96b" x="438.719995" y="107.398809" style="stroke: #000000"/>
     <use xlink:href="#maed6ecf96b" x="476.851104" y="107.398809" style="stroke: #000000"/>
     <use xlink:href="#maed6ecf96b" x="514.982213" y="107.398809" style="stroke: #000000"/>
     <use xlink:href="#maed6ecf96b" x="559.468506" y="113.753994" style="stroke: #000000"/>
     <use xlink:href="#maed6ecf96b" x="597.599615" y="113.753994" style="stroke: #000000"/>
     <use xlink:href="#maed6ecf96b" x="642.085909" y="107.398809" style="stroke: #000000"/>
     <use xlink:href="#maed6ecf96b" x="70.119276" y="145.529918" style="stroke: #000000"/>
     <use xlink:href="#maed6ecf96b" x="101.8952" y="139.174733" style="stroke: #000000"/>
     <use xlink:href="#maed6ecf96b" x="133.671124" y="145.529918" style="stroke: #000000"/>
     <use xlink:href="#maed6ecf96b" x="178.157418" y="151.885103" style="stroke: #000000"/>
     <use xlink:href="#maed6ecf96b" x="209.933342" y="145.529918" style="stroke: #000000"/>
     <use xlink:href="#maed6ecf96b" x="248.064451" y="145.529918" style="stroke: #000000"/>
     <use xlink:href="#maed6ecf96b" x="292.550744" y="139.174733" style="stroke: #000000"/>
     <use xlink:href="#maed6ecf96b" x="324.326668" y="145.529918" style="stroke: #000000"/>
     <use xlink:href="#maed6ecf96b" x="375.168147" y="145.529918" style="stroke: #000000"/>
     <use xlink:href="#maed6ecf96b" x="406.944071" y="151.885103" style="stroke: #000000"/>
     <use xlink:href="#maed6ecf96b" x="445.07518" y="151.885103" style="stroke: #000000"/>
     <use xlink:href="#maed6ecf96b" x="476.851104" y="145.529918" style="stroke: #000000"/>
     <use xlink:href="#maed6ecf96b" x="527.692582" y="145.529918" style="stroke: #000000"/>
     <use xlink:href="#maed6ecf96b" x="559.468506" y="151.885103" style="stroke: #000000"/>
     <use xlink:href="#maed6ecf96b" x="603.9548" y="145.529918" style="stroke: #000000"/>
     <use xlink:href="#maed6ecf96b" x="629.375539" y="145.529918" style="stroke: #000000"/>
     <use xlink:href="#maed6ecf96b" x="63.764091" y="177.305842" style="stroke: #000000"/>
     <use xlink:href="#maed6ecf96b" x="95.540015" y="183.661027" style="stroke: #000000"/>
     <use xlink:href="#maed6ecf96b" x="140.026309" y="177.305842" style="stroke: #000000"/>
     <use xlink:href="#maed6ecf96b" x="184.512602" y="183.661027" style="stroke: #000000"/>
     <use xlink:href="#maed6ecf96b" x="216.288526" y="190.016212" style="stroke: #000000"/>
     <use xlink:href="#maed6ecf96b" x="254.419635" y="190.016212" style="stroke: #000000"/>
     <use xlink:href="#maed6ecf96b" x="292.550744" y="177.305842" style="stroke: #000000"/>
     <use xlink:href="#maed6ecf96b" x="337.037038" y="183.661027" style="stroke: #000000"/>
     <use xlink:href="#maed6ecf96b" x="375.168147" y="183.661027" style="stroke: #000000"/>
     <use xlink:href="#maed6ecf96b" x="406.944071" y="190.016212" style="stroke: #000000"/>
     <use xlink:href="#maed6ecf96b" x="438.719995" y="183.661027" style="stroke: #000000"/>
     <use xlink:href="#maed6ecf96b" x="483.206289" y="177.305842" style="stroke: #000000"/>
     <use xlink:href="#maed6ecf96b" x="527.692582" y="183.661027" style="stroke: #000000"/>
     <use xlink:href="#maed6ecf96b" x="553.113322" y="183.661027" style="stroke: #000000"/>
     <use xlink:href="#maed6ecf96b" x="597.599615" y="190.016212" style="stroke: #000000"/>
     <use xlink:href="#maed6ecf96b" x="635.730724" y="177.305842" style="stroke: #000000"/>
     <use xlink:href="#maed6ecf96b" x="70.119276" y="221.792136" style="stroke: #000000"/>
     <use xlink:href="#maed6ecf96b" x="95.540015" y="221.792136" style="stroke: #000000"/>
     <use xlink:href="#maed6ecf96b" x="140.026309" y="228.147321" style="stroke: #000000"/>
     <use xlink:href="#maed6ecf96b" x="184.512602" y="221.792136" style="stroke: #000000"/>
     <use xlink:href="#maed6ecf96b" x="216.288526" y="228.147321" style="stroke: #000000"/>
     <use xlink:href="#maed6ecf96b" x="254.419635" y="215.436951" style="stroke: #000000"/>
     <use xlink:href="#maed6ecf96b" x="292.550744" y="215.436951" style="stroke: #000000"/>
     <use xlink:href="#maed6ecf96b" x="337.037038" y="221.792136" style="stroke: #000000"/>
     <use xlink:href="#maed6ecf96b" x="362.457777" y="221.792136" style="stroke: #000000"/>
     <use xlink:href="#maed6ecf96b" x="413.299256" y="221.792136" style="stroke: #000000"/>
     <use xlink:href="#maed6ecf96b" x="445.07518" y="215.436951" style="stroke: #000000"/>
     <use xlink:href="#maed6ecf96b" x="483.206289" y="228.147321" style="stroke: #000000"/>
     <use xlink:href="#maed6ecf96b" x="514.982213" y="221.792136" style="stroke: #000000"/>
     <use xlink:href="#maed6ecf96b" x="559.468506" y="215.436951" style="stroke: #000000"/>
     <use xlink:href="#maed6ecf96b" x="591.244431" y="221.792136" style="stroke: #000000"/>
     <use xlink:href="#maed6ecf96b" x="635.730724" y="228.147321" style="stroke: #000000"/>
     <use xlink:href="#maed6ecf96b" x="63.764091" y="266.27843" style="stroke: #000000"/>
     <use xlink:href="#maed6ecf96b" x="101.8952" y="266.27843" style="stroke: #000000"/>
     <use xlink:href="#maed6ecf96b" x="140.026309" y="253.56806" style="stroke: #000000"/>
     <use xlink:href="#maed6ecf96b" x="178.157418" y="253.56806" style="stroke: #000000"/>
     <use xlink:href="#maed6ecf96b" x="216.288526" y="253.56806" style="stroke: #000000"/>
     <use xlink:href="#maed6ecf96b" x="254.419635" y="253.56806" style="stroke: #000000"/>
     <use xlink:href="#maed6ecf96b" x="292.550744" y="253.56806" style="stroke: #000000"/>
     <use xlink:href="#maed6ecf96b" x="324.326668" y="259.923245" style="stroke: #000000"/>
     <use xlink:href="#maed6ecf96b" x="368.812962" y="266.27843" style="stroke: #000000"/>
     <use xlink:href="#maed6ecf96b" x="406.944071" y="253.56806" style="stroke: #000000"/>
     <use xlink:href="#maed6ecf96b" x="438.719995" y="259.923245" style="stroke: #000000"/>
     <use xlink:href="#maed6ecf96b" x="483.206289" y="266.27843" style="stroke: #000000"/>
     <use xlink:href="#maed6ecf96b" x="527.692582" y="259.923245" style="stroke: #000000"/>
     <use xlink:href="#maed6ecf96b" x="559.468506" y="266.27843" style="stroke: #000000"/>
     <use xlink:href="#maed6ecf96b" x="597.599615" y="266.27843" style="stroke: #000000"/>
     <use xlink:href="#maed6ecf96b" x="635.730724" y="266.27843" style="stroke: #000000"/>
     <use xlink:href="#maed6ecf96b" x="63.764091" y="291.699169" style="stroke: #000000"/>
     <use xlink:href="#maed6ecf96b" x="95.540015" y="298.054354" style="stroke: #000000"/>
     <use xlink:href="#maed6ecf96b" x="140.026309" y="291.699169" style="stroke: #000000"/>
     <use xlink:href="#maed6ecf96b" x="184.512602" y="298.054354" style="stroke: #000000"/>
     <use xlink:href="#maed6ecf96b" x="209.933342" y="298.054354" style="stroke: #000000"/>
     <use xlink:href="#maed6ecf96b" x="248.064451" y="298.054354" style="stroke: #000000"/>
     <use xlink:href="#maed6ecf96b" x="298.905929" y="298.054354" style="stroke: #000000"/>
     <use xlink:href="#maed6ecf96b" x="330.681853" y="304.409538" style="stroke: #000000"/>
     <use xlink:href="#maed6ecf96b" x="375.168147" y="298.054354" style="stroke: #000000"/>
     <use xlink:href="#maed6ecf96b" x="413.299256" y="298.054354" style="stroke: #000000"/>
     <use xlink:href="#maed6ecf96b" x="451.430365" y="298.054354" style="stroke: #000000"/>
     <use xlink:href="#maed6ecf96b" x="476.851104" y="298.054354" style="stroke: #000000"/>
     <use xlink:href="#maed6ecf96b" x="521.337398" y="304.409538" style="stroke: #000000"/>
     <use xlink:href="#maed6ecf96b" x="559.468506" y="291.699169" style="stroke: #000000"/>
     <use xlink:href="#maed6ecf96b" x="597.599615" y="291.699169" style="stroke: #000000"/>
     <use xlink:href="#maed6ecf96b" x="642.085909" y="298.054354" style="stroke: #000000"/>
    </g>
   </g>
   <g id="patch_3">
    <path d="M 120.960754 50.202146 
L 349.747408 50.202146 
L 349.747408 278.988799 
L 120.960754 278.988799 
L 120.960754 50.202146 
z
" clip-path="url(#p36bd301eb5)" style="fill: none; stroke: #008000; stroke-width: 2; stroke-linejoin: miter"/>
   </g>
   <g id="patch_4">
    <path d="M 311.616299 88.333255 
L 540.402952 88.333255 
L 540.402952 317.119908 
L 311.616299 317.119908 
L 311.616299 88.333255 
z
" clip-path="url(#p36bd301eb5)" style="fill: none; stroke: #800080; stroke-width: 2; stroke-linejoin: miter"/>
   </g>
   <g id="text_25">
    <!-- (2,1) -->
    <g style="fill: #008000" transform="translate(128.586976 63.548034)scale(0.11 -0.11)">
     <defs>
      <path id="DejaVuSans-28" d="M 1984 4856 
Q 1566 4138 1362 3434 
Q 1159 2731 1159 2009 
Q 1159 1288 1364 580 
Q 1569 -128 1984 -844 
L 1484 -844 
Q 1016 -109 783 600 
Q 550 1309 550 2009 
Q 550 2706 781 3412 
Q 1013 4119 1484 4856 
L 1984 4856 
z
" transform="scale(0.015625)"/>
      <path id="DejaVuSans-2c" d="M 750 794 
L 1409 794 
L 1409 256 
L 897 -744 
L 494 -744 
L 750 256 
L 750 794 
z
" transform="scale(0.015625)"/>
      <path id="DejaVuSans-29" d="M 513 4856 
L 1013 4856 
Q 1481 4119 1714 3412 
Q 1947 2706 1947 2009 
Q 1947 1309 1714 600 
Q 1481 -109 1013 -844 
L 513 -844 
Q 928 -128 1133 580 
Q 1338 1288 1338 2009 
Q 1338 2731 1133 3434 
Q 928 4138 513 4856 
z
" transform="scale(0.015625)"/>
     </defs>
     <use xlink:href="#DejaVuSans-28"/>
     <use xlink:href="#DejaVuSans-32" x="39.013672"/>
     <use xlink:href="#DejaVuSans-2c" x="102.636719"/>
     <use xlink:href="#DejaVuSans-31" x="134.423828"/>
     <use xlink:href="#DejaVuSans-29" x="198.046875"/>
    </g>
   </g>
   <g id="text_26">
    <!-- (7,2) -->
    <g style="fill: #800080" transform="translate(319.24252 101.679143)scale(0.11 -0.11)">
     <use xlink:href="#DejaVuSans-28"/>
     <use xlink:href="#DejaVuSans-37" x="39.013672"/>
     <use xlink:href="#DejaVuSans-2c" x="102.636719"/>
     <use xlink:href="#DejaVuSans-32" x="134.423828"/>
     <use xlink:href="#DejaVuSans-29" x="198.046875"/>
    </g>
   </g>
  </g>
 </g>
 <defs>
  <clipPath id="p36bd301eb5">
   <rect x="34.848" y="10.8" width="636.154" height="307.590945"/>
  </clipPath>
 </defs>
</svg>
